<svg xmlns="http://www.w3.org/2000/svg" xmlns:xlink="http://www.w3.org/1999/xlink" viewBox="0 0 120 128"><defs><style>.cls-1{fill:url(#무제_그라디언트_2)}.cls-2,.cls-4,.cls-5{fill:#fff}.cls-3{fill:none;stroke:#fff;stroke-miterlimit:10}.cls-4{font-size:7px;font-family:Montserrat-Black,Montserrat;font-weight:800}.cls-5{font-size:15px;font-family:NotoSansCJKkr-Regular-KSCpc-EUC-H,Noto Sans CJK KR;letter-spacing:.4em}</style><radialGradient id="무제_그라디언트_2" cx="1299.38" cy="4241.1" r=".5" gradientTransform="matrix(120, 0, 0, -128, -155865.95, 542924.36)" gradientUnits="userSpaceOnUse"><stop offset="0" stop-color="#ed1280"/><stop offset="1" stop-color="#e20071"/></radialGradient></defs><title>디미청원</title><g id="레이어_2" data-name="레이어 2"><g id="레이어_1-2" data-name="레이어 1"><path id="패스_174" d="M0,0H120V98L60,128,0,98Z" class="cls-1" data-name="패스 174"/><path d="M60.3,60.71c-11.56,0-20.93-9.75-20.93-21.78S48.74,17.15,60.3,17.15a20.59,20.59,0,0,1,16.57,8.48l-3.8,7.17a14.06,14.06,0,0,0-12.8-8.54c-7.77,0-14.07,6.56-14.07,14.64s6.3,14.65,14.07,14.65a14,14,0,0,0,12.06-7.09h0c.16-.28.31-.56.45-.85l7.34-13.67h0l3.14-5.71a25.89,25.89,0,0,0-23-14.36c-14.37,0-26,12.12-26,27.07S45.93,66,60.3,66c12.79,0,23.43-9.61,25.6-22.27l-5.06-.57C78.94,53.17,70.47,60.71,60.3,60.71Zm0-13.19a8.62,8.62,0,1,1,8.29-8.62A8.46,8.46,0,0,1,60.27,47.52Z" class="cls-2"/><line x1="8" x2="43.5" y1="76.5" y2="76.5" class="cls-3"/><line x1="77" x2="112.5" y1="76.5" y2="76.5" class="cls-3"/><text class="cls-4" transform="translate(45.76 79.55)">DIMIGO</text><text class="cls-5" transform="translate(23.5 101.04)">디미청원</text></g></g></svg>